<?xml version="1.0" encoding="UTF-8"?>
<svg width="24px" height="24px" viewBox="0 0 24 24" version="1.1" xmlns="http://www.w3.org/2000/svg">
    <title>Shopping Bag Outline</title>
    <g stroke="none" stroke-width="1" fill="none" fill-rule="evenodd">
        <path d="M7,8 L7,6 C7,3.23857625 9.23857625,1 12,1 C14.7614237,1 17,3.23857625 17,6 L17,8 L20,8 C20.5522847,8 21,8.44771525 21,9 L21,21 C21,21.5522847 20.5522847,22 20,22 L4,22 C3.44771525,22 3,21.5522847 3,21 L3,9 C3,8.44771525 3.44771525,8 4,8 L7,8 Z M5,10 L5,20 L19,20 L19,10 L5,10 Z M9,8 L15,8 L15,6 C15,4.34314575 13.6568542,3 12,3 C10.3431458,3 9,4.34314575 9,6 L9,8 Z" fill="currentColor"></path>
    </g>
</svg>
